<?xml version="1.0"?>
<svg xmlns="http://www.w3.org/2000/svg" width="4.5rem" height="4.5rem" viewBox="0 0 24 24" enable-background="new 0 0 24 24">
    <path d="M 4 4 C 2.9 4 2 4.9 2 6 L 2 18 C 2 19.1 2.9 20 4 20 L 20 20 C 21.1 20 22 19.1 22 18 L 22 6 C 22 4.9 21.1 4 20 4 L 4 4 z M 4 8 L 6 8 L 7 12 L 8 8 L 10 8 L 8 16 L 6 16 L 4 8 z M 11 8 L 13 8 L 13 16 L 11 16 L 11 8 z M 15 8 L 19 8 C 19.6 8 20 8.4 20 9 L 20 13 C 20 13.6 19.6 14 19 14 L 17 14 L 17 16 L 15 16 L 15 8 z M 17 10 L 17 12 L 18 12 L 18 10 L 17 10 z" fill="#088395"/>
</svg>
